<!DOCTYPE svg PUBLIC "-//W3C//DTD SVG 1.1//EN" "http://www.w3.org/Graphics/SVG/1.1/DTD/svg11.dtd">
<!-- Uploaded to: SVG Repo, www.svgrepo.com, Transformed by: SVG Repo Mixer Tools -->
<svg fill="#5571fb" version="1.1" id="Layer_1" xmlns="http://www.w3.org/2000/svg" xmlns:xlink="http://www.w3.org/1999/xlink" viewBox="0 0 496 496" xml:space="preserve" width="800px" height="800px" stroke="#5571fb">
<g id="SVGRepo_bgCarrier" stroke-width="0"/>
<g id="SVGRepo_tracerCarrier" stroke-linecap="round" stroke-linejoin="round"/>
<g id="SVGRepo_iconCarrier"> <g> <g> <g> <path d="M496,232v-20.088L258.592,40h-21.184L184,78.672V48h16V0H40v48h16v123.36L0,211.912V232h40v264h416v-32h40V256h-40v-24 H496z M56,16h128v16H56V16z M168,48v42.256l-96,69.52V48H168z M440,480H56V232h384v24H96v208h344V480z M208,360 c0-48.52,39.48-88,88-88s88,39.48,88,88c0,48.52-39.48,88-88,88C247.48,448,208,408.52,208,360z M240.832,448H112V272h128.832 C211.56,290.424,192,322.936,192,360C192,397.064,211.56,429.576,240.832,448z M480,272v176H351.168 C380.44,429.576,400,397.064,400,360c0-37.064-19.56-69.576-48.832-88H480z M448,216h-8H56h-8H21.64L242.592,56h10.816 L474.36,216H448z"/> <path d="M248,80c-35.288,0-64,28.712-64,64c0,35.288,28.712,64,64,64c35.288,0,64-28.712,64-64C312,108.712,283.288,80,248,80z M248,192c-26.472,0-48-21.528-48-48s21.528-48,48-48s48,21.528,48,48S274.472,192,248,192z"/> <path d="M304,432v-16c17.648,0,32-14.352,32-32s-14.352-32-32-32h-16c-8.824,0-16-7.176-16-16c0-8.824,7.176-16,16-16h16 c8.824,0,16,7.176,16,16v8h16v-8c0-17.648-14.352-32-32-32v-16h-16v16c-17.648,0-32,14.352-32,32s14.352,32,32,32h16 c8.824,0,16,7.176,16,16c0,8.824-7.176,16-16,16h-16c-8.824,0-16-7.176-16-16v-8h-16v8c0,17.648,14.352,32,32,32v16H304z"/> <rect x="416" y="352" width="16" height="16"/> <rect x="160" y="352" width="16" height="16"/> </g> </g> </g> </g>
</svg>